<svg xmlns="http://www.w3.org/2000/svg" xmlns:xlink="http://www.w3.org/1999/xlink" x="0" y="462"
     width="82px" height="66px" viewBox="0 0 82 66" version="1.1">
  <title>zh</title>
  <g id="zh" stroke="none" stroke-width="1" fill="none" fill-rule="evenodd">
    <g id="Group-3" transform="translate(6.000000, 6.000000)">
      <!-- Background Rectangle -->
      <path
        d="M57.4369627,-2 L12.5630373,-2 C7.62820107,-2 5.86681913,-1.41548744 4.07025825,-0.45467617 
           C2.11952899,0.588585254 0.588585254,2.11952899 -0.45467617,4.07025825 
           C-1.41548744,5.86681913 -2,7.62820107 -2,12.5630373 
           L-2,41.4369627 C-2,46.3717989 -1.41548744,48.1331809 -0.45467617,49.9297418 
           C0.588585254,51.880471 2.11952899,53.4114147 4.07025825,54.4546762 
           C5.86681913,55.4154874 7.62820107,56 12.5630373,56 
           L57.4369627,56 C62.3717989,56 64.1331809,55.4154874 65.9297418,54.4546762 
           C67.880471,53.4114147 69.4114147,51.880471 70.4546762,49.9297418 
           C71.4154874,48.1331809 72,46.3717989 72,41.4369627 
           L72,12.5630373 C72,7.62820107 71.4154874,5.86681913 70.4546762,4.07025825 
           C69.4114147,2.11952899 67.880471,0.588585254 65.9297418,-0.45467617 
           C64.1331809,-1.41548744 62.3717989,-2 57.4369627,-2 Z"
        id="Rectangle-3" stroke="#FFFFFF" stroke-width="4" fill="#FF4B4B" />

      <!-- Stars -->
      <g id="Group-2" transform="translate(8.000000, 4.000000)" fill="#FFC300" fill-rule="nonzero">
        <!-- Large Star -->
        <path
          d="M7.61221573,21.2038703 L5.06107374,22.545085 C4.26001408,22.966227 3.26922388,22.6582428 2.8480819,21.8571832 
             C2.68038095,21.538197 2.62251151,21.1728238 2.68343245,20.8176275 L3.17065721,17.9768891 
             C3.21702216,17.7065607 3.12739842,17.4307272 2.93099335,17.2392796 L0.867076128,15.2274575 
             C0.21900525,14.5957445 0.205744552,13.5582747 0.837457531,12.9102039 C1.08900895,12.6521386 1.41861692,12.484195 
             1.77525429,12.4323725 L4.62751774,12.0179144 C4.89894288,11.978474 5.13358086,11.8079995 5.25496587,11.5620466 
             L6.53053687,8.97745751 C6.9310667,8.16589544 7.91366133,7.83268796 8.72522341,8.23321779 
             C9.04839169,8.39271087 9.30997005,8.65428924 9.46946313,8.97745751 L10.7450341,11.5620466 
             C10.8664191,11.8079995 11.1010571,11.978474 11.3724823,12.0179144 L14.2247457,12.4323725 
             C15.1203576,12.5625126 15.7408952,13.3940488 15.6107552,14.2896608 C15.5589327,14.6462981 15.3909891,14.9759061 
             15.1329239,15.2274575 L13.0690066,17.2392796 C12.8726016,17.4307272 12.7829778,17.7065607 12.8293428,17.9768891 
             L13.3165676,20.8176275 C13.4695563,21.7096205 12.870475,22.5567456 11.978482,22.7097344 
             C11.6232857,22.7706554 11.2579124,22.7127859 10.9389263,22.545085 L8.38778427,21.2038703 
             C8.14501425,21.0762385 7.85498575,21.0762385 7.61221573,21.2038703 Z" id="Star" />

        <!-- Small Stars -->
        <g id="Group" transform="translate(14.000000, 0.000000)">
          <path
            d="M4.42901802,7.17103596 L3.28100413,7.77458258 C2.92052728,7.96409647 2.47467169,7.82550362 2.2851578,7.46502677 
               C2.20969237,7.321483 2.18365113,7.15706504 2.21106555,6.9972267 L2.43031669,5.71889444 
               C2.45118092,5.59724667 2.41085024,5.47312159 2.32246795,5.38697016 L1.3937052,4.48165022 
               C1.10207331,4.19737938 1.09610599,3.73051797 1.38037683,3.43888608 C1.49357497,3.32275673 1.64189856,3.24718209 
               1.80238537,3.22386199 L3.08590393,3.03735582 C3.20804524,3.01960765 3.31363233,2.94289414 3.36825559,2.83221534 
               L3.94226254,1.66915022 C4.12250096,1.30394729 4.56466854,1.15400393 4.92987148,1.33424235 
               C5.0752972,1.40601424 5.19300747,1.5237245 5.26477935,1.66915022 L5.8387863,2.83221534 
               C5.89340956,2.94289414 5.99899665,3.01960765 6.12113796,3.03735582 L7.40465652,3.22386199 
               C7.80768188,3.282425 8.08692379,3.65661632 8.02836078,4.05964168 C8.00504068,4.2201285 7.92946604,4.36845209 
               7.81333669,4.48165022 L6.88457394,5.38697016 C6.79619165,5.47312159 6.75586097,5.59724667 6.7767252,5.71889444 
               L6.99597634,6.9972267 C7.10830448,7.60764976 6.6675613,8.15818173 6.05713824,8.27050986 
               C5.8972999,8.29792428 5.73288194,8.27188304 5.58933817,8.19641761 L4.44132428,7.59287099 
               C4.30485475,7.52577492 4.1458682,7.52577492 4.00939867,7.59287099 L4.42901802,7.17103596 Z"
            id="Star" />
        </g>

        <g id="Group" transform="translate(17.000000, 4.000000)">
          <path
            d="M2.85701296,3.16651832 L2.11987165,3.56214406 C1.89758742,3.67998289 1.60978106,3.59180845 1.49194223,3.36952422 
               C1.44754494,3.28373688 1.4321104,3.18447877 1.44799012,3.08775299 L1.59030851,2.27913674 
               C1.60106098,2.2192739 1.58133606,2.15815352 1.53767973,2.11759741 L0.928749526,1.56158227 
               C0.734877658,1.37881812 0.732894943,1.06921201 0.91565909,0.875340147 C0.983929455,0.802358837 1.07227595,0.760562488 
               1.16453935,0.74613545 L1.98677989,0.629918393 C2.05655896,0.620147689 2.11769099,0.580572036 2.15793357,0.520140259 
               L2.45498232,-0.0621503456 C2.59828772,-0.308511588 2.92787177,-0.419286956 3.17423301,-0.275981558 
               C3.26889232,-0.21702425 3.34000478,-0.145911789 3.39896209,-0.0512524748 L3.69601084,0.53103713 
               C3.73625342,0.591468907 3.79738545,0.631044561 3.86716452,0.640815266 L4.68940506,0.757032323 
               C4.8752367,0.783475994 5.01549061,0.934139294 5.04193429,1.11997094 C5.05636133,1.21223433 5.01456498,1.30058083 
               4.94158367,1.36885119 L4.33265346,1.92486633 C4.28997513,1.96542244 4.27025021,2.02654282 4.28100268,2.08640566 
               L4.42332107,2.89502191 C4.49698036,3.29052289 4.25703465,3.67971992 3.86153367,3.75337922 
               C3.76480789,3.76925895 3.66554978,3.75382441 3.57976244,3.70942711 L2.84262112,3.31380137 
               C2.77986795,3.2794681 2.7066346,3.2794681 2.64388143,3.31380137 L2.85701296,3.16651832 Z"
            id="Star" />
        </g>

        <g id="Group" transform="translate(22.000000, 7.000000)">
          <path
            d="M2.85701296,3.16651832 L2.11987165,3.56214406 C1.89758742,3.67998289 1.60978106,3.59180845 1.49194223,3.36952422 
               C1.44754494,3.28373688 1.4321104,3.18447877 1.44799012,3.08775299 L1.59030851,2.27913674 
               C1.60106098,2.2192739 1.58133606,2.15815352 1.53767973,2.11759741 L0.928749526,1.56158227 
               C0.734877658,1.37881812 0.732894943,1.06921201 0.91565909,0.875340147 C0.983929455,0.802358837 1.07227595,0.760562488 
               1.16453935,0.74613545 L1.98677989,0.629918393 C2.05655896,0.620147689 2.11769099,0.580572036 2.15793357,0.520140259 
               L2.45498232,-0.0621503456 C2.59828772,-0.308511588 2.92787177,-0.419286956 3.17423301,-0.275981558 
               C3.26889232,-0.21702425 3.34000478,-0.145911789 3.39896209,-0.0512524748 L3.69601084,0.53103713 
               C3.73625342,0.591468907 3.79738545,0.631044561 3.86716452,0.640815266 L4.68940506,0.757032323 
               C4.8752367,0.783475994 5.01549061,0.934139294 5.04193429,1.11997094 C5.05636133,1.21223433 5.01456498,1.30058083 
               4.94158367,1.36885119 L4.33265346,1.92486633 C4.28997513,1.96542244 4.27025021,2.02654282 4.28100268,2.08640566 
               L4.42332107,2.89502191 C4.49698036,3.29052289 4.25703465,3.67971992 3.86153367,3.75337922 
               C3.76480789,3.76925895 3.66554978,3.75382441 3.57976244,3.70942711 L2.84262112,3.31380137 
               C2.77986795,3.2794681 2.7066346,3.2794681 2.64388143,3.31380137 L2.85701296,3.16651832 Z"
            id="Star" />
        </g>
      </g>
    </g>
  </g>
</svg>
