<svg xmlns="http://www.w3.org/2000/svg" xmlns:xlink="http://www.w3.org/1999/xlink" x="0" y="462"
  width="82px" height="66px" viewBox="0 0 82 66" version="1.1">
  <title>fr</title>
  <g id="fr" stroke="none" stroke-width="1" fill="none" fill-rule="evenodd">
    <g id="Group-3" transform="translate(6.000000, 6.000000)">
      <!-- Background with Rounded Corners -->
      <path
        d="M57.4369627,-2 L12.5630373,-2 C7.62820107,-2 5.86681913,-1.41548744 4.07025825,-0.45467617 C2.11952899,0.588585254 0.588585254,2.11952899 -0.45467617,4.07025825 C-1.41548744,5.86681913 -2,7.62820107 -2,12.5630373 L-2,41.4369627 C-2,46.3717989 -1.41548744,48.1331809 -0.45467617,49.9297418 C0.588585254,51.880471 2.11952899,53.4114147 4.07025825,54.4546762 C5.86681913,55.4154874 7.62820107,56 12.5630373,56 L57.4369627,56 C62.3717989,56 64.1331809,55.4154874 65.9297418,54.4546762 C67.880471,53.4114147 69.4114147,51.880471 70.4546762,49.9297418 C71.4154874,48.1331809 72,46.3717989 72,41.4369627 L72,12.5630373 C72,7.62820107 71.4154874,5.86681913 70.4546762,4.07025825 C69.4114147,2.11952899 67.880471,0.588585254 65.9297418,-0.45467617 C64.1331809,-1.41548744 62.3717989,-2 57.4369627,-2 Z"
        fill="#FFFFFF" />
      <!-- Blue Stripe -->
      <rect x="0" y="0" width="20" height="52" fill="#0055A4"/>
      <!-- White Stripe -->
      <rect x="20" y="0" width="20" height="52" fill="#FFFFFF"/>
      <!-- Red Stripe -->
      <rect x="40" y="0" width="20" height="52" fill="#EF4135"/>
    </g>
  </g>
</svg>
