<svg xmlns="http://www.w3.org/2000/svg" xmlns:xlink="http://www.w3.org/1999/xlink" x="0" y="462"
     width="82px" height="66px" viewBox="0 0 82 66" version="1.1">
  <title>fr</title>
  <g id="fr" stroke="none" stroke-width="1" fill="none" fill-rule="evenodd">
    <g id="Group-3" transform="translate(6.000000, 6.000000)">
      <!-- More Rectangular Background -->
      <path
        d="M58,-2 L12,-2 C7.5,-2 6.5,-1.5 5,-1 
           C3.5,-0.5 2.5,0 1,1 
           C0,2.5 -0.5,3.5 -1,5 
           C-1.5,6.5 -2,7.5 -2,12 
           L-2,42 C-2,46.5 -1.5,47.5 -1,49 
           C-0.5,50.5 0,51.5 1,53 
           C2.5,54.5 3.5,55 5,56 
           C6.5,56.5 7.5,57 12,57 
           L58,57 C62.5,57 63.5,56.5 65,56 
           C66.5,55.5 67.5,54.5 69,53 
           C70.5,51.5 71,50.5 71.5,49 
           C72,47.5 72,46.5 72,42 
           L72,12 C72,7.5 72,6.5 71.5,5 
           C71,3.5 70.5,2.5 69,1 
           C67.5,0 66.5,-0.5 65,-1 
           C63.5,-1.5 62.5,-2 58,-2 Z"
        id="Rounded-Rectangle" stroke="#FFFFFF" stroke-width="4" fill="#FFFFFF" />
      
      <!-- French Flag Colors: Blue, White, Red -->
      <!-- Blue Stripe -->
      <rect x="0" y="-2" width="24" height="58" fill="#0055A4" />
      <!-- White Stripe -->
      <rect x="24" y="-2" width="24" height="58" fill="#FFFFFF" />
      <!-- Red Stripe -->
      <rect x="48" y="-2" width="24" height="58" fill="#EF4135" />
    </g>
  </g>
</svg>
